<?xml version="1.0" standalone="no"?>
<!DOCTYPE svg PUBLIC "-//W3C//DTD SVG 20010904//EN"
 "http://www.w3.org/TR/2001/REC-SVG-20010904/DTD/svg10.dtd">
<svg version="1.0" xmlns="http://www.w3.org/2000/svg"
 width="64.000000pt" height="64.000000pt" viewBox="0 0 64.000000 64.000000"
 preserveAspectRatio="xMidYMid meet">

<g transform="translate(0.000000,64.000000) scale(0.100000,-0.100000)"
fill="#000000" stroke="none">
<path d="M340 629 c-38 -16 -68 -48 -81 -86 -10 -31 -14 -34 -47 -31 -32 3
-38 7 -42 33 l-5 30 -80 0 c-73 0 -80 -2 -80 -20 0 -17 8 -20 56 -23 l56 -3
36 -162 c21 -89 37 -180 37 -202 0 -50 21 -81 59 -90 22 -5 31 -13 33 -32 4
-36 29 -50 62 -35 18 8 26 19 26 37 0 24 2 25 65 25 62 0 65 -1 65 -24 0 -54
75 -61 86 -8 3 16 15 32 27 37 12 6 22 19 22 30 0 19 -8 20 -195 25 l-195 5
-3 33 -3 32 158 0 c87 0 163 4 169 8 8 5 74 269 74 297 0 3 -21 5 -47 5 -46 1
-49 2 -68 42 -11 23 -32 51 -46 61 -32 23 -104 31 -139 16z m114 -24 c82 -39
89 -168 12 -219 -14 -9 -44 -16 -67 -16 -82 0 -137 61 -126 140 12 89 98 134
181 95z m-303 -65 c4 -14 22 -87 39 -162 l32 -138 169 0 c106 0 169 -4 169
-10 0 -6 -63 -10 -170 -10 l-170 0 0 -39 c0 -69 7 -71 216 -71 116 0 184 -4
184 -10 0 -6 -68 -10 -184 -10 -228 0 -225 -1 -236 116 -6 65 -44 254 -66 327
-4 13 -17 17 -60 17 -36 0 -53 4 -49 10 4 6 31 10 63 8 49 -3 56 -6 63 -28z
m102 -79 c4 -16 20 -45 37 -65 49 -56 116 -65 188 -27 26 14 62 72 62 100 0
18 6 21 41 21 34 0 39 -3 35 -17 -3 -10 -12 -51 -21 -90 l-17 -73 -177 0 -178
0 -20 90 -20 90 32 0 c28 0 33 -4 38 -29z m317 -186 c0 -13 -26 -15 -170 -15
-144 0 -170 2 -170 15 0 13 26 15 170 15 144 0 170 -2 170 -15z m-222 -227
c-2 -15 -10 -23 -23 -23 -13 0 -21 8 -23 23 -3 18 1 22 23 22 22 0 26 -4 23
-22z m220 0 c-2 -15 -10 -23 -23 -23 -13 0 -21 8 -23 23 -3 18 1 22 23 22 22
0 26 -4 23 -22z"/>
<path d="M413 508 c-27 -27 -34 -30 -48 -18 -25 21 -31 2 -7 -23 l22 -22 36
37 c20 19 35 41 33 47 -2 6 -18 -3 -36 -21z"/>
</g>
</svg>
